<svg version="1.1" xmlns="http://www.w3.org/2000/svg" xmlns:xlink="http://www.w3.org/1999/xlink">

	<symbol id="icon-lock" viewBox="0 0 12 14" xmlns="http://www.w3.org/2000/svg"><path d="M6 0C3.79 0 2 1.79 2 4v2H0v8h12V6h-2V4c0-2.21-1.79-4-4-4zm0 2c1.19 0 2 .81 2 2v2H4V4c0-1.19.81-2 2-2z" fill-rule="nonzero"/></symbol>

	<symbol id="icon-caret" xmlns="http://www.w3.org/2000/svg"><path d="M8.014.477c-.69-.643-1.746-.643-2.411.045L.483 5.85a1.662 1.662 0 000 2.342l5.096 5.304A1.68 1.68 0 006.82 14c.436 0 .85-.16 1.194-.46.688-.642.688-1.745.045-2.41L4.064 7.02l3.95-4.132c.688-.666.688-1.768 0-2.411z" fill-rule="nonzero"/></symbol>

	<symbol id="icon-x" width='10' height='10' xmlns='http://www.w3.org/2000/svg'><path d='M10 1.814L8.185 0 5 3.184 1.815 0 0 1.814 3.185 5 0 8.183l1.815 1.815L5 6.814 8.185 10 10 8.184 6.815 4.998z' /></symbol>

	<symbol id="social-dribbble" xmlns="http://www.w3.org/2000/svg" viewBox="0 0 32 32"><path fill-rule="evenodd" clip-rule="evenodd" d="M16 32C7.2 32 0 24.8 0 16S7.2 0 16 0s16 7.2 16 16-7.2 16-16 16zm13.5-13.8c-.5-.2-4.2-1.3-8.5-.6 1.8 4.9 2.5 8.9 2.7 9.7 3-2 5.2-5.3 5.8-9.1zm-8.2 10.4c-.2-1.2-1-5.4-2.9-10.4h-.1c-7.7 2.7-10.5 8-10.7 8.5 2.3 1.8 5.2 2.9 8.4 2.9 1.9.1 3.7-.3 5.3-1zM5.8 25.2c.3-.5 4.1-6.7 11.1-9 .2-.1.4-.1.5-.2-.3-.8-.7-1.6-1.1-2.3-6.8 2-13.4 2-14 1.9v.4c0 3.5 1.4 6.7 3.5 9.2zm-3.2-12c.6 0 6.2 0 12.6-1.7-2.3-4-4.7-7.4-5.1-7.9C6.4 5.5 3.5 9 2.6 13.2zM12.8 2.7c.4.5 2.9 3.9 5.1 8 4.9-1.8 6.9-4.6 7.2-4.9-2.4-2.1-5.6-3.4-9.1-3.4-1.1 0-2.2.1-3.2.3zm13.8 4.7c-.3.4-2.6 3.3-7.6 5.4.3.7.6 1.3.9 2 .1.2.2.5.3.7 4.5-.6 9.1.3 9.5.4-.1-3.2-1.2-6.2-3.1-8.5z"/></symbol>

	<symbol id="social-facebook" xmlns="http://www.w3.org/2000/svg" viewBox="0 0 32 32"><path d="M30.7 0H1.3C.6 0 0 .6 0 1.3v29.3c0 .8.6 1.4 1.3 1.4H17V20h-4v-5h4v-4c0-4.1 2.6-6.2 6.3-6.2 1.8 0 3.3.2 3.7.2v4.3h-2.6c-2 0-2.5 1-2.5 2.4V15h5l-1 5h-4l.1 12h8.6c.7 0 1.3-.6 1.3-1.3V1.3C32 .6 31.4 0 30.7 0z"/></symbol>

	<symbol id="social-github" xmlns="http://www.w3.org/2000/svg" viewBox="0 0 32 32"><path fill-rule="evenodd" clip-rule="evenodd" d="M16 .4C7.2.4 0 7.6 0 16.4c0 7.1 4.6 13.1 10.9 15.2.8.1 1.1-.3 1.1-.8v-2.7c-4.5 1-5.4-2.1-5.4-2.1-.7-1.8-1.8-2.3-1.8-2.3-1.5-1 .1-1 .1-1 1.6.1 2.5 1.6 2.5 1.6 1.4 2.4 3.7 1.7 4.7 1.3.1-1 .6-1.7 1-2.1-3.6-.4-7.3-1.8-7.3-7.9 0-1.7.6-3.2 1.6-4.3-.2-.4-.7-2 .2-4.2 0 0 1.3-.4 4.4 1.6 1.3-.4 2.6-.5 4-.5s2.7.2 4 .5C23.1 6.6 24.4 7 24.4 7c.9 2.2.3 3.8.2 4.2 1 1.1 1.6 2.5 1.6 4.3 0 6.1-3.7 7.5-7.3 7.9.6.5 1.1 1.5 1.1 3v4.4c0 .4.3.9 1.1.8C27.4 29.5 32 23.5 32 16.4c0-8.8-7.2-16-16-16z"/></symbol>
	 
	<symbol id="social-instagram" xmlns="http://www.w3.org/2000/svg" viewBox="0 0 32 32"><path d="M28.2 0H3.8C1.7 0 0 1.7 0 3.8v24.4C0 30.3 1.7 32 3.8 32h24.4c2.1 0 3.8-1.7 3.8-3.8V3.8C32 1.7 30.3 0 28.2 0zM24 4h3c.6 0 1 .4 1 1v3c0 .6-.4 1-1 1h-3c-.6 0-1-.4-1-1V5c0-.6.4-1 1-1zm-8 5.9c3.4 0 6.2 2.7 6.2 6.1 0 3.4-2.8 6.1-6.2 6.1-3.4 0-6.2-2.7-6.2-6.1.1-3.4 2.8-6.1 6.2-6.1zM28 29H4c-.6 0-1-.4-1-1V13h4c-.5.8-.7 2.1-.7 3 0 5.4 4.4 9.7 9.7 9.7 5.4 0 9.7-4.4 9.7-9.7 0-.9-.1-2.3-.8-3h4v15c.1.6-.3 1-.9 1z"/></symbol>

	<symbol id="social-linkedin" xmlns="http://www.w3.org/2000/svg" viewBox="0 0 32 32"><path d="M30.7 0H1.3C.6 0 0 .6 0 1.3v29.3c0 .8.6 1.4 1.3 1.4h29.3c.7 0 1.3-.6 1.3-1.3V1.3C32 .6 31.4 0 30.7 0zM9.5 27.3H4.7V12h4.8v15.3zM7.1 9.9c-1.5 0-2.8-1.2-2.8-2.8 0-1.5 1.2-2.8 2.8-2.8 1.5 0 2.8 1.2 2.8 2.8 0 1.6-1.3 2.8-2.8 2.8zm20.2 17.4h-4.7v-7.4c0-1.8 0-4-2.5-4s-2.8 1.9-2.8 3.9v7.6h-4.7V12H17v2.1h.1c.6-1.2 2.2-2.5 4.5-2.5 4.8 0 5.7 3.2 5.7 7.3v8.4z"/></symbol>

	<symbol id="social-pinterest" xmlns="http://www.w3.org/2000/svg" viewBox="0 0 32 32"><path d="M16 0C7.2 0 0 7.2 0 16c0 6.8 4.2 12.6 10.2 14.9-.1-1.3-.3-3.2.1-4.6.3-1.2 1.9-8 1.9-8s-.5-1-.5-2.4c0-2.2 1.3-3.9 2.9-3.9 1.4 0 2 1 2 2.3 0 1.4-.9 3.4-1.3 5.3-.4 1.6.8 2.9 2.4 2.9 2.8 0 5-3 5-7.3 0-3.8-2.8-6.5-6.7-6.5-4.6 0-7.2 3.4-7.2 6.9 0 1.4.5 2.8 1.2 3.7.1.2.1.3.1.5-.1.5-.4 1.6-.4 1.8-.2.3-.4.4-.7.2-2-.9-3.2-3.9-3.2-6.2 0-5 3.7-9.7 10.6-9.7 5.6 0 9.9 4 9.9 9.2 0 5.5-3.5 10-8.3 10-1.6 0-3.1-.8-3.7-1.8 0 0-.8 3.1-1 3.8-.4 1.4-1.3 3.1-2 4.2 1.5.5 3.1.7 4.7.7 8.8 0 16-7.2 16-16S24.8 0 16 0z"/></symbol>

	<symbol id="social-producthunt" xmlns="http://www.w3.org/2000/svg" viewBox="0 0 32 32"><path d="M18.1 11.2h-4.5V16h4.5c1.3 0 2.4-1.1 2.4-2.4 0-1.3-1-2.4-2.4-2.4z"/><path fill="#444" d="M16 0C7.2 0 0 7.2 0 16s7.2 16 16 16 16-7.2 16-16S24.8 0 16 0zm2.1 19.2h-4.5V24h-3.2V8h7.7c3.1 0 5.6 2.5 5.6 5.6 0 3.1-2.5 5.6-5.6 5.6z"/></symbol>

	<symbol id="social-reddit" xmlns="http://www.w3.org/2000/svg" viewBox="0 0 32 32"><path d="M32 15.7c0-2.1-1.7-3.8-3.8-3.8-.9 0-1.8.3-2.4.9-2.3-1.5-5.3-2.4-8.5-2.5L19 5l4.5 1c.1 1.7 1.5 3 3.2 3 1.8 0 3.2-1.4 3.2-3.2 0-1.8-1.4-3.2-3.2-3.2-1.2 0-2.3.7-2.9 1.7L18.5 3c-.4-.1-.9.2-1 .6l-2.1 6.5c-3.4.1-6.7 1-9.2 2.5-.7-.5-1.5-.8-2.4-.8-2.1 0-3.8 1.7-3.8 3.8 0 1.3.7 2.5 1.7 3.2 0 .3-.1.6-.1.9 0 2.7 1.5 5.1 4.3 6.9 2.7 1.8 6.2 2.7 10 2.7s7.3-1 10-2.7c2.8-1.8 4.3-4.3 4.3-6.9 0-.3 0-.6-.1-.8 1.2-.6 1.9-1.8 1.9-3.2zM26.7 4.3c.8 0 1.5.7 1.5 1.5s-.7 1.5-1.5 1.5-1.5-.7-1.5-1.5.7-1.5 1.5-1.5zM9.1 18.1c0-1.2 1-2.2 2.2-2.2 1.2 0 2.2 1 2.2 2.2s-1 2.2-2.2 2.2c-1.2 0-2.2-1-2.2-2.2zm12.2 6.4c-1.1 1.1-2.8 1.7-5.3 1.7-2.4 0-4.1-.5-5.3-1.7-.3-.3-.3-.9 0-1.2.3-.3.9-.3 1.2 0 .8.8 2.1 1.1 4 1.1s3.2-.4 4-1.1c.3-.3.9-.3 1.2 0 .5.3.5.8.2 1.2zm-.5-4.2c-1.2 0-2.2-1-2.2-2.2s1-2.2 2.2-2.2c1.2 0 2.2 1 2.2 2.2s-1 2.2-2.2 2.2z"/></symbol>

	<symbol id="social-rss" xmlns="http://www.w3.org/2000/svg" viewBox="0 0 32 32"><circle cx="5.3" cy="25.3" r="4"/><path fill="#444" d="M29.3 29.3H24C24 16.8 13.8 6.7 1.3 6.7V1.3c15.5 0 28 12.6 28 28z"/><path fill="#444" d="M20 29.3h-5.3C14.7 22 8.7 16 1.3 16v-5.3C11.6 10.7 20 19 20 29.3z"/></symbol>

	<symbol id="social-twitter" xmlns="http://www.w3.org/2000/svg" viewBox="0 0 32 32"><path d="M32 6.1c-1.2.5-2.4.9-3.8 1 1.4-.8 2.4-2.1 2.9-3.6-1.3.8-2.7 1.3-4.2 1.6C25.7 3.8 24 3 22.2 3c-3.6 0-6.6 2.9-6.6 6.6 0 .5.1 1 .2 1.5-5.5-.3-10.3-2.9-13.6-6.9-.6 1-.9 2.1-.9 3.3 0 2.3 1.2 4.3 2.9 5.5-1.1 0-2.1-.3-3-.8v.1c0 3.2 2.3 5.8 5.3 6.4-.6.1-1.1.2-1.7.2-.4 0-.8 0-1.2-.1.8 2.6 3.3 4.5 6.1 4.6-2.2 1.8-5.1 2.8-8.2 2.8-.5 0-1.1 0-1.6-.1 3 1.8 6.5 2.9 10.2 2.9 12.1 0 18.7-10 18.7-18.7v-.8c1.2-1 2.3-2.1 3.2-3.4z"/></symbol>

	<symbol id="social-vimeo" xmlns="http://www.w3.org/2000/svg" viewBox="0 0 32 32"><path d="M32 8.6c-.1 3.1-2.3 7.4-6.5 12.8-4.4 5.7-8 8.5-11 8.5-1.9 0-3.4-1.7-4.7-5.2-.9-3.2-1.7-6.3-2.6-9.5-1-3.4-2-5.2-3.1-5.2-.2 0-1.1.5-2.5 1.5L0 9.6c1.6-1.4 3.1-2.8 4.7-4.2 2.1-1.8 3.7-2.8 4.7-2.9 2.5-.2 4 1.5 4.6 5.1.6 3.9 1.1 6.4 1.3 7.3.7 3.3 1.5 4.9 2.4 4.9.7 0 1.7-1.1 3-3.2s2.1-3.7 2.2-4.8c.2-1.8-.5-2.7-2.2-2.7-.8 0-1.6.2-2.4.5 1.6-5.2 4.6-7.7 9-7.5 3.3.2 4.9 2.3 4.7 6.5z"/></symbol>

	<symbol id="social-youtube" xmlns="http://www.w3.org/2000/svg" viewBox="0 0 32 32"><path d="M31.7 9.6s-.3-2.2-1.3-3.2c-1.2-1.3-2.6-1.3-3.2-1.4-4.5-.3-11.2-.3-11.2-.3s-6.7 0-11.2.3c-.6.1-2 .1-3.2 1.4C.6 7.4.3 9.6.3 9.6S0 12.2 0 14.8v2.4c0 2.6.3 5.2.3 5.2s.3 2.2 1.3 3.2c1.2 1.3 2.8 1.2 3.5 1.4 2.6.2 10.9.3 10.9.3s6.7 0 11.2-.3c.6-.1 2-.1 3.2-1.4 1-1 1.3-3.2 1.3-3.2s.3-2.6.3-5.2v-2.4c0-2.6-.3-5.2-.3-5.2zm-19 10.6v-9l8.6 4.5-8.6 4.5z"/></symbol>

    <symbol id="posthaven-wordmark" width="120" height="13" xmlns="http://www.w3.org/2000/svg"><g fill-rule="nonzero"><path fill="var(--color-1)" d="M2.755 12.785V9.014h2.093c.703 0 1.362-.093 1.976-.279a4.686 4.686 0 0 0 1.61-.834c.46-.372.82-.832 1.083-1.383.262-.55.393-1.191.393-1.921V4.56a4.58 4.58 0 0 0-.33-1.769A3.882 3.882 0 0 0 8.63 1.42a4.267 4.267 0 0 0-1.503-.89C6.538.32 5.868.216 5.116.216H0v12.57h2.755zm2.182-6.231H2.755V2.71h2.128c.692 0 1.238.162 1.637.485.4.323.6.796.6 1.419v.036c0 .538-.191.99-.573 1.355-.382.365-.918.548-1.61.548zM18.67 13c.966 0 1.858-.17 2.674-.512a6.451 6.451 0 0 0 2.111-1.4 6.51 6.51 0 0 0 1.387-2.065 6.37 6.37 0 0 0 .5-2.523v-.036c0-.898-.164-1.739-.491-2.523a6.187 6.187 0 0 0-1.378-2.047A6.626 6.626 0 0 0 21.371.512C20.561.17 19.671 0 18.706 0c-.966 0-1.857.17-2.674.512a6.451 6.451 0 0 0-2.111 1.4 6.51 6.51 0 0 0-1.387 2.065 6.37 6.37 0 0 0-.5 2.523v.036c0 .898.164 1.739.492 2.523a6.187 6.187 0 0 0 1.377 2.047c.59.58 1.29 1.041 2.102 1.382.81.341 1.7.512 2.665.512zm.036-2.55c-.56 0-1.07-.104-1.53-.314a3.797 3.797 0 0 1-1.986-2.11 4.2 4.2 0 0 1-.276-1.526v-.036c0-.539.092-1.044.277-1.517a3.98 3.98 0 0 1 .77-1.248c.327-.36.72-.64 1.18-.844.459-.204.969-.305 1.53-.305a3.66 3.66 0 0 1 1.52.314c.465.21.867.494 1.207.853.34.359.602.778.787 1.257a4.2 4.2 0 0 1 .277 1.526v.036a4.13 4.13 0 0 1-.277 1.517 3.98 3.98 0 0 1-.769 1.248c-.328.36-.724.64-1.19.844a3.751 3.751 0 0 1-1.52.305zm14.18 2.514c.68 0 1.3-.087 1.86-.26a4.278 4.278 0 0 0 1.45-.754 3.41 3.41 0 0 0 .948-1.221c.226-.485.34-1.039.34-1.661v-.036c0-.55-.087-1.024-.26-1.419a2.874 2.874 0 0 0-.77-1.032 4.712 4.712 0 0 0-1.251-.754 12.708 12.708 0 0 0-1.69-.566 40.13 40.13 0 0 1-1.333-.377 3.947 3.947 0 0 1-.832-.341c-.203-.12-.343-.255-.42-.404a1.137 1.137 0 0 1-.117-.53v-.036c0-.311.134-.571.403-.78.268-.21.67-.315 1.207-.315s1.073.11 1.61.332a9.061 9.061 0 0 1 1.646.907l1.43-2.083A7.33 7.33 0 0 0 34.989.449c-.77-.275-1.613-.413-2.531-.413-.644 0-1.234.09-1.771.27-.537.179-.999.436-1.386.771a3.536 3.536 0 0 0-.904 1.194c-.214.461-.322.979-.322 1.554v.035c0 .623.099 1.144.295 1.563.197.419.474.769.832 1.05s.793.518 1.306.71c.513.19 1.085.364 1.717.52.525.132.951.257 1.28.377.327.12.584.24.768.36.185.119.31.248.376.385.066.138.098.297.098.476v.036a.99.99 0 0 1-.474.87c-.316.21-.76.315-1.332.315a4.697 4.697 0 0 1-1.977-.413 8.17 8.17 0 0 1-1.762-1.113l-1.628 1.957a7.428 7.428 0 0 0 2.505 1.517c.918.33 1.854.494 2.808.494zm13.304-.18V2.766H50V.215H39.625v2.55h3.81v10.02h2.755z"/><path fill="var(--color-2)" d="M55.763 12.908V7.763h5.094v5.145h2.763V.092h-2.763v5.071h-5.094V.092H53v12.816h2.763zm13.251 0l1.149-2.874h5.31l1.148 2.874h2.888L74.127 0H71.58l-5.382 12.908h2.816zm5.472-5.364h-3.337l1.669-4.157 1.668 4.157zM88.527 13L93.604.092h-2.978l-3.283 9.026L84.06.092h-3.05L86.088 13h2.44zm17.217-.092V10.4h-6.817V7.708h5.92V5.2h-5.92V2.6h6.727V.092h-9.472v12.816h9.562zm5.825 0V4.761l6.081 8.147H120V.092h-2.727v7.891L111.39.092h-2.547v12.816h2.727z"/></g></symbol>
</svg>